<?xml version="1.0" encoding="UTF-8"?>
<svg xmlns="http://www.w3.org/2000/svg" viewBox="0 0 96 96">
  <g transform="translate(48, 48) scale(0.052) translate(-874, -979)" fill="currentColor">
    <path d="M1368.4,808.45c0,110.4,1.66,220.82-.49,331.18-1.92,98.57-45.94,172.77-137.71,214.96-33.11,15.23-68.66,19.8-104.49,19.91-168.84.53-337.68.82-506.52.23-134.53-.47-233.91-100.2-234.23-234.42-.42-175.98-.56-351.97,0-527.95.16-48.65-2.46-97.19-.92-145.95,3.58-113.29,84-206.1,196.54-222.63,16.73-2.46,33.48-3.65,50.43-3.63,166.89.15,333.79-.12,500.68.16,55.49.09,106.34,14.79,149.93,50.82,57.87,47.83,85.55,110.28,86.31,184.17,1.14,111.03.3,222.09.3,333.13.06,0,.12,0,.18,0ZM881.26,950.15c109.13,0,196.78.14,284.43-.05,62.47-.14,99.94-36.97,100.23-98.92.4-86.35.18-172.71.32-259.06.02-11.79-1.16-23.27-5.33-34.41-15.34-40.97-47.89-63.03-95.36-63.07-166.86-.14-333.72.03-500.58.11-30.52.02-61.06-.75-91.54.42-51.76,1.98-88.93,40.03-89.21,91.83-.49,89.59-.36,179.2.33,268.79.33,42.67,26.04,78.19,64.38,90.67,18.04,5.88,37.03,6.79,55.89,5.88,99.28-4.81,198.63-.5,276.45-2.2ZM875.06,427.55v-.11c35.01,0,70.02.17,105.03-.05,33.34-.21,54.43-19.47,55.1-49.79.68-30.66-21.22-53.54-54.08-53.85-70.66-.66-141.34-.61-212-.02-32.74.27-54.86,23.18-54.18,53.75.67,30.28,21.78,49.71,55.1,50.01,35.01.31,70.02.07,105.03.07ZM587.92,1070.66c-46.23.14-77.77,32.39-77.37,79.11.38,44.76,33.7,79.52,76.39,79.69,43.28.18,79.03-35.76,79.16-79.56.13-45.29-33.5-79.38-78.18-79.24ZM1239.74,1149.06c-.14-46.35-32.63-78.86-78.42-78.49-44.15.36-77.35,33.81-77.29,77.88.06,45,36.31,81.51,80.09,80.69,43.81-.82,75.76-34.66,75.62-80.07Z"/>
    <path d="M586.7,1493.54c10.05.47,15.75.97,21.46.97,176.64.09,353.28.16,529.92.08,6.23,0,14.68,3.12,18.23-2.78,3.97-6.61-4.31-11.25-7.7-16.29-10.52-15.61-21.44-30.96-32.64-46.09-6.67-9.01-8.56-15.42,6.07-15.52,25.33-.17,50.67.02,75.61-5.38,8.44-1.83,13.08,2.83,17.74,8.88,74.06,96.22,148.26,192.33,222.33,288.53,3.41,4.43,9.28,8.98,6.29,15.2s-10.19,4.63-15.82,4.66c-26.62.14-53.25-.27-79.88.07-10.82.14-18.08-3.98-24.35-12.83-24.39-34.44-49.77-68.19-73.91-102.8-8.23-11.8-17.25-17-32.06-16.98-229.24.44-458.48.41-687.73.07-13.32-.02-21.23,4.89-28.73,15.47-24.41,34.42-50.18,67.88-74.73,102.21-7.56,10.57-16.12,15.46-29.22,15.12-25.31-.64-50.65.14-75.97-.1-6.07-.06-14.35,3.08-17.48-4.42-2.92-6.99,4.29-11.66,8.06-16.54,60.3-78.13,120.79-156.11,181.2-234.14,13.12-16.94,26.24-33.88,39.16-50.98,5.39-7.14,11.26-12.72,21.11-10.53,23.04,5.11,46.49,4.01,69.83,4.69,5.1.15,11.53-.65,13.96,4.71s-2.72,9.52-5.7,13.59c-14.12,19.31-28.38,38.53-45.05,61.13Z"/>
    <path d="M893.51,724.17c0,59.04-.2,118.08.16,177.11.08,12.78-1.88,21.25-17.54,21.24-15.31-.02-18.39-8.27-18.38-21.06.04-120.02-.05-240.05-.26-360.07-.02-12.23,3.49-19.88,17.54-19.8,13.72.07,17.88,7.15,17.84,19.63-.2,60.98-.09,121.97-.09,182.95.24,0,.49,0,.73,0Z"/>
  </g>
</svg>
